<svg id="svg" version="1.1" xmlns="http://www.w3.org/2000/svg" xmlns:xlink="http://www.w3.org/1999/xlink" width="400" height="400" viewBox="0, 0, 400,400"><g id="svgg"><path id="path0" d="M183.800 0.251 C 177.309 0.741,168.887 1.675,168.200 1.981 C 167.760 2.177,165.240 2.644,162.600 3.018 C 159.960 3.392,157.620 3.831,157.400 3.993 C 157.180 4.156,155.296 4.594,153.212 4.968 C 151.129 5.342,149.239 5.794,149.012 5.972 C 148.786 6.151,147.160 6.610,145.400 6.992 C 143.640 7.374,142.017 7.835,141.792 8.016 C 141.568 8.197,140.128 8.657,138.592 9.038 C 137.057 9.419,135.710 9.865,135.599 10.029 C 135.488 10.193,134.251 10.624,132.848 10.988 C 131.446 11.351,129.916 11.883,129.449 12.170 C 128.982 12.457,127.745 12.920,126.700 13.198 C 125.655 13.476,124.800 13.832,124.800 13.989 C 124.800 14.145,124.035 14.497,123.100 14.771 C 122.165 15.045,121.040 15.489,120.600 15.758 C 120.160 16.027,118.900 16.580,117.800 16.987 C 116.700 17.394,115.710 17.842,115.600 17.984 C 115.490 18.125,114.500 18.575,113.400 18.984 C 112.300 19.392,111.310 19.837,111.200 19.973 C 111.090 20.108,109.380 21.023,107.400 22.006 C 105.420 22.988,103.620 23.938,103.400 24.117 C 103.020 24.426,102.504 24.714,98.500 26.852 C 97.565 27.351,96.800 27.904,96.800 28.080 C 96.800 28.256,96.601 28.400,96.358 28.400 C 96.115 28.400,95.116 28.940,94.138 29.600 C 93.160 30.260,92.223 30.800,92.055 30.800 C 91.888 30.800,91.402 31.124,90.975 31.520 C 90.549 31.916,89.570 32.591,88.800 33.020 C 88.030 33.449,87.256 34.025,87.080 34.300 C 86.904 34.575,86.544 34.800,86.280 34.800 C 86.016 34.801,85.277 35.251,84.638 35.800 C 83.999 36.350,83.369 36.800,83.238 36.801 C 83.107 36.801,82.370 37.341,81.600 38.000 C 80.830 38.659,80.091 39.199,79.958 39.199 C 79.826 39.200,79.249 39.605,78.677 40.100 C 78.105 40.595,77.133 41.392,76.518 41.871 C 69.803 47.105,65.361 51.072,58.216 58.216 C 50.734 65.698,47.352 69.485,41.871 76.518 C 41.392 77.133,40.595 78.105,40.100 78.677 C 39.605 79.249,39.200 79.826,39.199 79.958 C 39.199 80.091,38.659 80.830,38.000 81.600 C 37.341 82.370,36.801 83.107,36.801 83.238 C 36.800 83.369,36.350 83.999,35.800 84.638 C 35.251 85.277,34.801 86.016,34.800 86.280 C 34.800 86.544,34.554 86.904,34.254 87.080 C 33.954 87.256,33.395 88.013,33.012 88.762 C 32.628 89.512,31.974 90.491,31.557 90.938 C 31.141 91.385,30.800 91.888,30.800 92.055 C 30.800 92.223,30.260 93.160,29.600 94.138 C 28.940 95.116,28.400 96.115,28.400 96.358 C 28.400 96.601,28.256 96.800,28.080 96.800 C 27.904 96.800,27.351 97.565,26.852 98.500 C 24.714 102.504,24.426 103.020,24.117 103.400 C 23.938 103.620,22.988 105.420,22.006 107.400 C 21.023 109.380,20.108 111.090,19.973 111.200 C 19.837 111.310,19.392 112.300,18.984 113.400 C 18.575 114.500,18.125 115.490,17.984 115.600 C 17.842 115.710,17.394 116.700,16.987 117.800 C 16.580 118.900,16.027 120.160,15.758 120.600 C 15.489 121.040,15.045 122.165,14.771 123.100 C 14.497 124.035,14.146 124.800,13.989 124.800 C 13.833 124.800,13.404 125.874,13.036 127.187 C 12.667 128.500,12.212 129.669,12.023 129.786 C 11.835 129.902,11.462 130.943,11.195 132.099 C 10.928 133.254,10.490 134.560,10.221 135.000 C 9.953 135.440,9.420 137.057,9.039 138.592 C 8.657 140.128,8.197 141.568,8.016 141.792 C 7.835 142.017,7.374 143.640,6.992 145.400 C 6.610 147.160,6.151 148.786,5.972 149.012 C 5.794 149.239,5.342 151.129,4.968 153.212 C 4.594 155.296,4.150 157.180,3.982 157.400 C 3.813 157.620,3.373 159.960,3.004 162.600 C 2.636 165.240,2.181 167.693,1.994 168.052 C -0.414 172.664,-0.414 227.336,1.994 231.948 C 2.181 232.307,2.636 234.760,3.004 237.400 C 3.373 240.040,3.813 242.380,3.982 242.600 C 4.150 242.820,4.594 244.704,4.968 246.788 C 5.342 248.871,5.794 250.761,5.972 250.988 C 6.151 251.214,6.610 252.840,6.992 254.600 C 7.374 256.360,7.835 257.983,8.016 258.208 C 8.197 258.432,8.657 259.872,9.038 261.408 C 9.419 262.943,9.865 264.290,10.029 264.401 C 10.193 264.512,10.624 265.749,10.988 267.152 C 11.351 268.554,11.883 270.084,12.170 270.551 C 12.457 271.018,12.920 272.255,13.198 273.300 C 13.476 274.345,13.832 275.200,13.989 275.200 C 14.145 275.200,14.497 275.965,14.771 276.900 C 15.045 277.835,15.489 278.960,15.758 279.400 C 16.027 279.840,16.580 281.100,16.987 282.200 C 17.394 283.300,17.842 284.290,17.984 284.400 C 18.125 284.510,18.575 285.500,18.984 286.600 C 19.392 287.700,19.834 288.690,19.966 288.800 C 20.098 288.910,21.014 290.616,22.003 292.592 C 22.991 294.567,23.945 296.367,24.121 296.592 C 24.427 296.980,24.724 297.515,26.852 301.500 C 27.351 302.435,27.904 303.200,28.080 303.200 C 28.256 303.200,28.400 303.399,28.400 303.642 C 28.400 303.885,28.940 304.884,29.600 305.862 C 30.260 306.840,30.800 307.777,30.800 307.945 C 30.800 308.112,31.124 308.598,31.520 309.025 C 31.916 309.451,32.591 310.430,33.020 311.200 C 33.449 311.970,34.025 312.744,34.300 312.920 C 34.575 313.096,34.800 313.456,34.800 313.720 C 34.801 313.984,35.251 314.723,35.800 315.362 C 36.350 316.001,36.800 316.642,36.800 316.787 C 36.800 316.931,37.115 317.400,37.500 317.829 C 37.885 318.259,38.868 319.507,39.684 320.605 C 47.412 330.998,59.361 343.765,69.067 352.000 C 73.071 355.397,76.583 358.225,79.395 360.316 C 80.493 361.132,81.741 362.115,82.171 362.500 C 82.600 362.885,83.069 363.200,83.213 363.200 C 83.358 363.200,83.999 363.650,84.638 364.200 C 85.277 364.749,86.016 365.199,86.280 365.200 C 86.544 365.200,86.904 365.425,87.080 365.700 C 87.256 365.975,88.030 366.551,88.800 366.980 C 89.570 367.409,90.549 368.084,90.975 368.480 C 91.402 368.876,91.888 369.200,92.055 369.200 C 92.223 369.200,93.160 369.740,94.138 370.400 C 95.116 371.060,96.115 371.600,96.358 371.600 C 96.601 371.600,96.800 371.753,96.800 371.939 C 96.800 372.126,97.564 372.621,98.497 373.039 C 99.430 373.458,100.510 374.115,100.897 374.500 C 101.284 374.885,101.857 375.200,102.171 375.200 C 102.486 375.200,102.981 375.429,103.271 375.708 C 103.974 376.384,114.460 381.611,115.100 381.605 C 115.375 381.602,115.600 381.744,115.600 381.921 C 115.600 382.098,116.545 382.578,117.700 382.988 C 118.855 383.399,120.160 383.959,120.600 384.233 C 121.040 384.507,122.165 384.955,123.100 385.229 C 124.035 385.503,124.800 385.855,124.800 386.011 C 124.800 386.168,125.655 386.524,126.700 386.802 C 127.745 387.080,128.982 387.543,129.449 387.830 C 129.916 388.117,131.446 388.649,132.849 389.012 C 134.252 389.375,135.580 389.819,135.800 390.000 C 136.020 390.181,137.370 390.631,138.800 391.000 C 140.230 391.369,141.580 391.816,141.800 391.992 C 142.020 392.169,143.640 392.626,145.400 393.008 C 147.160 393.390,148.786 393.849,149.012 394.028 C 149.239 394.206,151.129 394.658,153.212 395.032 C 155.296 395.406,157.180 395.844,157.400 396.007 C 157.620 396.169,159.960 396.608,162.600 396.982 C 165.240 397.356,167.760 397.823,168.200 398.019 C 173.636 400.443,230.623 400.386,231.533 397.956 C 231.607 397.760,232.194 397.600,232.838 397.600 C 234.567 397.600,241.674 396.442,242.600 396.009 C 243.040 395.803,245.018 395.343,246.996 394.987 C 248.974 394.630,250.774 394.195,250.996 394.021 C 251.218 393.846,252.840 393.390,254.600 393.008 C 256.360 392.626,257.983 392.165,258.208 391.984 C 258.432 391.803,259.872 391.343,261.408 390.962 C 262.943 390.581,264.290 390.135,264.401 389.971 C 264.512 389.807,265.749 389.376,267.152 389.012 C 268.554 388.649,270.084 388.117,270.551 387.830 C 271.018 387.543,272.255 387.080,273.300 386.802 C 274.345 386.524,275.200 386.168,275.200 386.011 C 275.200 385.855,275.965 385.503,276.900 385.229 C 277.835 384.955,278.960 384.507,279.400 384.233 C 279.840 383.959,281.145 383.399,282.300 382.988 C 283.455 382.578,284.400 382.098,284.400 381.921 C 284.400 381.744,284.625 381.604,284.900 381.609 C 285.389 381.617,295.807 376.514,296.600 375.879 C 296.980 375.573,297.505 375.281,301.500 373.148 C 302.435 372.649,303.200 372.096,303.200 371.920 C 303.200 371.744,303.399 371.600,303.642 371.600 C 303.885 371.600,304.884 371.060,305.862 370.400 C 306.840 369.740,307.777 369.200,307.945 369.200 C 308.112 369.200,308.598 368.876,309.025 368.480 C 309.451 368.084,310.430 367.409,311.200 366.980 C 311.970 366.551,312.744 365.975,312.920 365.700 C 313.096 365.425,313.456 365.200,313.720 365.200 C 313.984 365.199,314.723 364.749,315.362 364.200 C 316.001 363.650,316.642 363.200,316.787 363.200 C 316.931 363.200,317.400 362.885,317.829 362.500 C 318.259 362.115,319.507 361.132,320.605 360.316 C 330.998 352.588,343.765 340.639,352.000 330.933 C 355.397 326.929,358.225 323.417,360.316 320.605 C 361.132 319.507,362.115 318.259,362.500 317.829 C 362.885 317.400,363.200 316.931,363.200 316.787 C 363.200 316.642,363.650 316.001,364.200 315.362 C 364.749 314.723,365.199 313.984,365.200 313.720 C 365.200 313.456,365.425 313.096,365.700 312.920 C 365.975 312.744,366.551 311.970,366.980 311.200 C 367.409 310.430,368.084 309.451,368.480 309.025 C 368.876 308.598,369.200 308.112,369.200 307.945 C 369.200 307.777,369.740 306.840,370.400 305.862 C 371.060 304.884,371.600 303.885,371.600 303.642 C 371.600 303.399,371.753 303.200,371.939 303.200 C 372.126 303.200,372.621 302.436,373.039 301.503 C 373.458 300.570,374.115 299.490,374.500 299.103 C 374.885 298.716,375.200 298.143,375.200 297.829 C 375.200 297.514,375.429 297.019,375.708 296.729 C 376.384 296.026,381.611 285.540,381.605 284.900 C 381.602 284.625,381.744 284.400,381.921 284.400 C 382.098 284.400,382.578 283.455,382.988 282.300 C 383.399 281.145,383.959 279.840,384.233 279.400 C 384.507 278.960,384.955 277.835,385.229 276.900 C 385.503 275.965,385.855 275.200,386.011 275.200 C 386.168 275.200,386.524 274.345,386.802 273.300 C 387.080 272.255,387.543 271.018,387.830 270.551 C 388.117 270.084,388.649 268.554,389.012 267.152 C 389.376 265.749,389.807 264.512,389.971 264.401 C 390.135 264.290,390.581 262.943,390.962 261.408 C 391.343 259.872,391.803 258.432,391.984 258.208 C 392.165 257.983,392.626 256.360,393.008 254.600 C 393.390 252.840,393.849 251.214,394.028 250.988 C 394.206 250.761,394.658 248.871,395.032 246.788 C 395.406 244.704,395.851 242.820,396.021 242.600 C 396.192 242.380,396.629 240.040,396.993 237.400 C 397.357 234.760,397.817 232.240,398.015 231.800 C 400.436 226.430,400.436 173.570,398.015 168.200 C 397.817 167.760,397.357 165.240,396.993 162.600 C 396.629 159.960,396.192 157.620,396.021 157.400 C 395.851 157.180,395.406 155.296,395.032 153.212 C 394.658 151.129,394.206 149.239,394.028 149.012 C 393.849 148.786,393.390 147.160,393.008 145.400 C 392.626 143.640,392.165 142.017,391.984 141.792 C 391.803 141.568,391.343 140.128,390.962 138.592 C 390.581 137.057,390.135 135.710,389.971 135.599 C 389.807 135.488,389.376 134.251,389.012 132.848 C 388.649 131.446,388.117 129.916,387.830 129.449 C 387.543 128.982,387.080 127.745,386.802 126.700 C 386.524 125.655,386.168 124.800,386.011 124.800 C 385.855 124.800,385.503 124.035,385.229 123.100 C 384.955 122.165,384.511 121.040,384.242 120.600 C 383.973 120.160,383.420 118.900,383.013 117.800 C 382.606 116.700,382.158 115.710,382.016 115.600 C 381.875 115.490,381.425 114.500,381.016 113.400 C 380.608 112.300,380.163 111.310,380.027 111.200 C 379.892 111.090,378.977 109.380,377.994 107.400 C 377.012 105.420,376.062 103.620,375.883 103.400 C 375.574 103.020,375.286 102.504,373.148 98.500 C 372.649 97.565,372.096 96.800,371.920 96.800 C 371.744 96.800,371.600 96.601,371.600 96.358 C 371.600 96.115,371.060 95.116,370.400 94.138 C 369.740 93.160,369.200 92.223,369.200 92.055 C 369.200 91.888,368.876 91.402,368.480 90.975 C 368.084 90.549,367.409 89.570,366.980 88.800 C 366.551 88.030,365.975 87.256,365.700 87.080 C 365.425 86.904,365.200 86.544,365.200 86.280 C 365.199 86.016,364.749 85.277,364.200 84.638 C 363.650 83.999,363.200 83.358,363.200 83.213 C 363.200 83.069,362.885 82.600,362.500 82.171 C 362.115 81.741,361.132 80.493,360.316 79.395 C 352.386 68.731,339.900 55.457,329.961 47.123 C 328.024 45.499,325.217 43.224,323.482 41.871 C 322.867 41.392,321.895 40.595,321.323 40.100 C 320.751 39.605,320.174 39.200,320.042 39.199 C 319.909 39.199,319.170 38.659,318.400 38.000 C 317.630 37.341,316.893 36.801,316.762 36.801 C 316.631 36.800,316.001 36.350,315.362 35.800 C 314.723 35.251,313.984 34.801,313.720 34.800 C 313.456 34.800,313.096 34.554,312.920 34.254 C 312.744 33.954,311.987 33.395,311.238 33.012 C 310.488 32.628,309.509 31.974,309.062 31.557 C 308.615 31.141,308.102 30.800,307.921 30.800 C 307.741 30.800,306.848 30.260,305.937 29.600 C 305.025 28.940,304.037 28.400,303.740 28.400 C 303.443 28.400,303.200 28.256,303.200 28.080 C 303.200 27.904,302.435 27.351,301.500 26.852 C 297.496 24.714,296.980 24.426,296.600 24.117 C 296.380 23.938,294.580 22.986,292.600 22.000 C 290.620 21.014,288.940 20.071,288.867 19.904 C 288.793 19.737,288.560 19.600,288.348 19.600 C 288.136 19.600,286.617 18.970,284.973 18.200 C 283.328 17.430,281.849 16.800,281.685 16.800 C 281.522 16.800,280.748 16.457,279.965 16.037 C 279.183 15.618,277.790 15.049,276.871 14.774 C 275.952 14.499,275.200 14.145,275.200 13.989 C 275.200 13.832,274.345 13.476,273.300 13.198 C 272.255 12.920,271.024 12.461,270.564 12.179 C 270.104 11.896,268.934 11.454,267.964 11.197 C 266.994 10.939,265.660 10.484,265.000 10.185 C 264.340 9.886,262.630 9.346,261.200 8.985 C 259.770 8.624,258.420 8.184,258.200 8.008 C 257.980 7.831,256.360 7.374,254.600 6.992 C 252.840 6.610,251.220 6.157,251.000 5.986 C 250.780 5.816,248.980 5.376,247.000 5.010 C 245.020 4.643,243.111 4.191,242.759 4.005 C 242.406 3.819,239.976 3.364,237.359 2.994 C 234.741 2.624,232.240 2.165,231.800 1.974 C 228.919 0.726,194.077 -0.525,183.800 0.251 M219.800 12.773 C 242.459 15.654,260.858 20.712,278.400 28.880 C 283.929 31.455,293.386 36.368,295.200 37.608 C 295.750 37.983,298.000 39.407,300.200 40.771 C 302.400 42.136,305.460 44.147,307.000 45.242 C 308.540 46.336,310.250 47.536,310.800 47.909 C 323.177 56.291,343.603 76.716,352.094 89.200 C 352.468 89.750,353.603 91.370,354.616 92.800 C 360.912 101.687,370.285 118.654,373.619 127.200 C 374.091 128.410,375.008 130.750,375.656 132.400 C 377.822 137.913,380.685 146.796,382.167 152.600 C 384.421 161.434,385.483 167.165,387.095 179.200 C 388.060 186.403,388.060 213.597,387.095 220.800 C 384.227 242.210,381.211 253.769,373.378 273.363 C 362.192 301.346,338.592 331.418,312.738 350.632 C 294.279 364.351,277.156 373.007,254.000 380.324 C 248.391 382.096,236.517 384.848,231.200 385.607 C 229.550 385.842,226.580 386.291,224.600 386.604 C 214.665 388.174,189.317 388.410,178.800 387.029 C 160.503 384.628,146.495 381.194,132.400 375.656 C 130.750 375.008,128.410 374.089,127.200 373.615 C 124.688 372.630,110.807 365.808,107.800 364.080 C 103.201 361.438,99.124 358.878,94.666 355.833 C 92.062 354.055,89.536 352.330,89.052 352.000 C 76.645 343.536,56.335 323.199,47.906 310.800 C 47.532 310.250,46.650 308.990,45.946 308.000 C 37.511 296.140,28.948 280.001,23.874 266.400 C 18.235 251.284,15.026 237.724,12.705 219.200 C 12.067 214.103,12.067 185.897,12.705 180.800 C 15.184 161.014,20.015 141.646,25.455 129.683 C 25.784 128.959,26.282 127.789,26.560 127.083 C 26.839 126.377,27.322 125.170,27.633 124.400 C 28.325 122.692,34.926 109.469,35.921 107.800 C 36.314 107.140,37.225 105.610,37.945 104.400 C 38.665 103.190,39.776 101.390,40.414 100.400 C 41.051 99.410,41.940 97.970,42.388 97.200 C 44.479 93.610,51.632 84.056,56.694 78.092 C 70.680 61.614,88.985 46.543,108.082 35.785 C 111.364 33.936,126.835 26.400,127.348 26.400 C 127.491 26.400,128.372 26.053,129.304 25.628 C 131.974 24.414,135.815 23.001,140.800 21.400 C 143.330 20.587,145.940 19.741,146.600 19.518 C 164.212 13.582,200.132 10.272,219.800 12.773 M190.400 20.411 C 166.711 22.245,146.061 27.055,129.288 34.644 C 128.127 35.170,127.089 35.600,126.983 35.600 C 126.536 35.600,113.877 42.076,110.200 44.186 C 83.671 59.409,59.455 83.627,44.188 110.200 C 42.040 113.940,35.600 126.537,35.600 126.999 C 35.600 127.115,35.244 127.972,34.809 128.904 C 32.577 133.690,28.925 144.059,26.887 151.400 C 4.989 230.277,38.328 313.200,108.720 354.938 C 115.501 358.958,128.108 365.216,131.800 366.394 C 132.680 366.675,133.580 367.036,133.800 367.196 C 134.020 367.357,135.280 367.861,136.600 368.317 C 137.920 368.773,140.620 369.722,142.600 370.425 C 148.145 372.396,158.510 375.152,164.400 376.221 C 166.270 376.560,169.060 377.095,170.600 377.410 C 182.955 379.930,202.365 380.480,218.800 378.774 C 236.103 376.978,249.790 373.607,266.928 366.918 C 305.922 351.700,340.353 320.352,359.975 282.200 C 365.028 272.375,370.167 259.509,372.596 250.600 C 374.139 244.937,375.929 237.666,376.188 236.000 C 376.342 235.010,376.810 232.490,377.227 230.400 C 380.552 213.751,380.552 186.249,377.227 169.600 C 376.810 167.510,376.342 164.990,376.188 164.000 C 375.929 162.334,374.139 155.063,372.596 149.400 C 371.561 145.605,368.296 136.221,367.028 133.400 C 366.732 132.740,366.353 131.753,366.188 131.206 C 365.893 130.233,363.877 125.801,361.183 120.200 C 358.608 114.847,350.147 100.317,349.187 99.600 C 349.040 99.490,348.729 99.040,348.495 98.600 C 341.688 85.771,316.856 61.532,297.800 49.115 C 286.183 41.546,276.375 36.667,261.000 30.810 C 251.874 27.333,236.584 23.521,225.600 21.984 C 215.148 20.521,198.552 19.779,190.400 20.411 M218.800 32.768 C 228.349 34.094,238.257 36.038,245.266 37.960 C 248.970 38.976,259.432 42.442,261.000 43.173 C 261.440 43.378,263.600 44.294,265.800 45.208 C 275.015 49.035,286.943 55.598,295.229 61.400 C 296.800 62.500,298.471 63.667,298.943 63.993 C 310.546 72.023,328.545 90.022,336.000 101.051 C 336.330 101.539,337.695 103.528,339.033 105.469 C 346.920 116.917,352.820 128.457,358.424 143.400 C 360.120 147.920,362.906 157.489,363.764 161.736 C 364.112 163.461,364.485 165.015,364.593 165.189 C 365.038 165.909,367.209 180.992,367.589 186.000 C 369.777 214.867,365.456 240.632,353.805 268.200 C 341.865 296.449,318.053 324.035,290.000 342.118 C 275.180 351.671,251.775 361.407,237.477 363.966 C 236.199 364.194,235.013 364.468,234.842 364.574 C 232.578 365.973,211.987 367.996,200.000 367.997 C 188.203 367.998,167.408 365.965,165.189 364.593 C 165.015 364.485,163.461 364.112,161.736 363.764 C 157.489 362.906,147.920 360.120,143.400 358.424 C 81.260 335.119,41.689 284.991,32.707 218.200 C 32.055 213.347,32.055 186.653,32.707 181.800 C 35.245 162.930,39.713 146.149,45.620 133.304 C 46.049 132.372,46.400 131.507,46.400 131.382 C 46.400 129.978,54.943 114.595,59.940 107.000 C 77.340 80.556,104.996 57.411,133.400 45.522 C 148.050 39.390,159.472 36.165,175.600 33.606 C 185.286 32.069,210.277 31.584,218.800 32.768 M177.213 87.695 C 173.693 88.978,174.073 92.232,178.866 101.858 L 182.082 108.315 181.785 147.324 C 181.622 168.779,181.379 186.505,181.244 186.715 C 180.907 187.243,172.503 188.603,163.400 189.603 C 159.220 190.062,155.530 190.514,155.200 190.606 C 154.870 190.698,150.958 191.144,146.507 191.597 C 142.056 192.049,138.186 192.498,137.907 192.595 C 137.628 192.691,134.340 193.052,130.600 193.397 C 126.860 193.741,122.570 194.202,121.066 194.420 C 118.585 194.781,109.375 195.695,97.200 196.790 C 94.670 197.017,90.578 197.386,88.108 197.609 C 75.985 198.702,77.078 204.699,91.000 213.472 C 97.762 217.733,101.247 218.957,106.389 218.874 C 109.512 218.824,110.212 218.671,118.200 216.284 C 126.850 213.700,141.687 210.597,156.800 208.211 C 168.683 206.334,172.627 205.667,176.743 204.836 C 179.022 204.376,181.047 204.000,181.243 204.000 C 181.643 204.000,181.650 266.128,181.250 270.600 L 181.000 273.400 176.200 273.860 C 173.560 274.114,167.440 274.698,162.600 275.159 C 157.760 275.620,152.720 276.171,151.400 276.384 C 148.000 276.931,142.218 277.473,129.813 278.405 C 118.038 279.290,116.336 279.585,115.415 280.900 C 112.733 284.730,120.070 290.984,132.000 295.038 C 136.133 296.442,142.688 296.610,148.400 295.458 C 152.800 294.570,160.249 293.436,170.000 292.168 C 181.236 290.707,183.265 290.515,196.800 289.635 C 209.644 288.800,215.385 288.618,249.000 287.980 C 278.596 287.418,281.409 287.017,282.747 283.179 C 284.225 278.941,274.962 272.449,262.412 268.928 C 257.846 267.646,250.346 267.508,245.023 268.608 C 237.814 270.097,205.833 272.778,205.030 271.961 C 204.943 271.872,205.027 267.660,205.217 262.600 C 205.406 257.540,205.760 244.940,206.002 234.600 C 206.454 215.318,206.934 204.732,207.412 203.504 C 208.267 201.305,216.533 200.825,261.000 200.391 C 313.373 199.879,319.627 199.570,321.500 197.399 C 326.645 191.434,313.703 180.228,297.716 176.805 L 293.764 175.959 279.680 177.193 C 271.933 177.872,265.371 178.504,265.098 178.599 C 264.824 178.693,261.540 179.050,257.800 179.393 C 254.060 179.735,249.920 180.185,248.600 180.392 C 247.280 180.600,243.050 181.050,239.200 181.393 C 235.350 181.736,229.500 182.293,226.200 182.630 C 217.214 183.547,207.626 183.596,207.069 182.726 C 206.558 181.928,207.670 162.847,209.782 136.200 C 210.960 121.325,212.785 112.208,215.392 108.169 C 219.402 101.955,215.450 96.333,203.600 91.394 C 195.391 87.973,181.710 86.055,177.213 87.695 " stroke="none" fill="#050504" fill-rule="evenodd"></path><path id="path1" d="M191.200 12.405 C 183.669 12.922,172.781 14.004,171.200 14.391 C 170.430 14.580,168.450 14.945,166.800 15.202 C 151.718 17.554,132.836 23.776,117.000 31.612 C 24.869 77.205,-13.624 187.939,30.414 280.696 C 45.893 313.297,73.460 343.678,103.262 360.977 C 117.371 369.167,125.566 372.975,139.044 377.606 C 142.149 378.673,145.749 379.834,147.044 380.187 C 148.340 380.539,150.300 381.089,151.400 381.409 C 178.027 389.152,213.715 389.765,242.400 382.973 C 292.842 371.029,332.827 341.874,361.274 296.296 C 396.247 240.264,396.247 159.736,361.274 103.704 C 329.812 53.295,283.448 22.506,226.200 14.005 C 217.279 12.681,199.213 11.854,191.200 12.405 M214.800 20.407 C 233.959 21.843,258.477 28.166,274.200 35.727 C 288.876 42.785,297.873 48.125,308.200 55.908 C 395.823 121.947,404.865 249.903,327.384 327.384 C 287.365 367.403,228.707 386.956,174.400 378.380 C 171.650 377.946,168.680 377.487,167.800 377.360 C 163.264 376.708,150.210 373.370,143.450 371.134 C 97.437 355.916,60.162 323.369,38.164 279.200 C 17.148 237.006,14.060 185.745,29.826 140.800 C 31.507 136.008,34.864 127.417,35.573 126.093 C 35.777 125.712,37.103 123.060,38.520 120.200 C 45.374 106.362,52.007 96.195,62.000 84.207 C 77.928 65.098,97.625 49.656,120.407 38.416 C 123.153 37.061,125.712 35.784,126.093 35.577 C 127.213 34.971,135.521 31.690,140.400 29.928 C 148.499 27.003,162.277 23.442,169.416 22.428 C 171.167 22.180,174.220 21.704,176.200 21.370 C 183.849 20.083,203.828 19.584,214.800 20.407 M191.400 32.443 C 172.154 33.765,155.445 37.299,140.000 43.315 C 138.570 43.872,136.410 44.714,135.200 45.187 C 100.268 58.816,67.367 89.807,49.616 125.800 C 8.059 210.063,43.930 312.502,128.800 351.932 C 133.119 353.939,134.398 354.485,139.400 356.461 C 177.614 371.552,219.559 371.560,260.800 356.483 C 267.341 354.092,281.306 347.184,287.200 343.425 C 311.995 327.610,327.610 311.995,343.425 287.200 C 346.122 282.972,351.201 273.168,353.579 267.600 C 354.284 265.950,355.099 264.060,355.389 263.400 C 362.964 246.201,367.717 221.755,367.717 200.000 C 367.717 181.146,365.155 165.393,358.998 146.400 C 357.238 140.971,354.902 135.158,351.765 128.400 C 349.818 124.206,345.141 115.448,343.434 112.800 C 334.863 99.503,328.562 91.472,319.465 82.249 C 285.878 48.199,237.268 29.294,191.400 32.443 M193.193 87.852 C 206.143 90.647,216.555 96.912,217.453 102.450 C 217.642 103.612,217.302 104.760,215.680 108.444 C 212.261 116.208,210.706 125.241,209.595 143.800 C 209.358 147.760,208.897 153.880,208.571 157.400 C 208.246 160.920,207.866 168.075,207.727 173.300 L 207.476 182.800 213.038 182.800 C 218.130 182.800,233.103 181.861,235.000 181.423 C 235.440 181.321,238.860 180.958,242.600 180.617 C 246.340 180.275,251.470 179.727,254.000 179.399 C 256.530 179.071,261.660 178.527,265.400 178.190 C 269.140 177.853,273.280 177.414,274.600 177.214 C 285.811 175.519,296.892 175.720,302.600 177.721 C 317.386 182.905,326.176 191.593,322.174 197.070 C 320.061 199.961,316.066 200.201,260.000 200.798 C 220.222 201.221,210.126 201.700,208.151 203.259 C 207.366 203.878,206.232 228.961,205.761 256.088 L 205.485 271.976 207.443 271.791 C 208.519 271.690,212.550 271.414,216.400 271.179 C 227.745 270.486,236.288 269.660,241.200 268.782 C 257.287 265.905,272.048 269.234,280.441 277.632 C 283.678 280.871,283.999 281.849,282.604 284.229 C 280.557 287.723,282.216 287.577,230.800 288.794 C 199.599 289.533,182.457 290.655,166.400 293.009 C 160.806 293.830,149.846 295.517,145.500 296.228 C 136.131 297.759,125.897 294.762,117.869 288.134 C 111.000 282.464,113.478 279.038,124.931 278.370 C 128.489 278.163,133.380 277.805,135.800 277.576 C 147.392 276.476,152.554 275.938,156.600 275.407 C 159.020 275.089,164.330 274.547,168.400 274.202 C 176.469 273.518,180.279 273.055,180.618 272.715 C 180.952 272.382,181.650 228.058,181.517 215.600 C 181.403 204.885,181.379 204.601,180.600 204.654 C 180.160 204.684,177.730 205.082,175.200 205.538 C 169.916 206.492,164.712 207.361,150.800 209.610 C 138.514 211.597,123.556 214.921,115.600 217.432 C 106.373 220.345,103.400 220.273,96.600 216.971 C 86.598 212.114,79.642 205.952,79.609 201.919 C 79.579 198.221,81.476 197.548,94.600 196.602 C 99.220 196.270,105.250 195.728,108.000 195.400 C 110.750 195.071,115.970 194.523,119.600 194.181 C 123.230 193.840,126.470 193.484,126.800 193.390 C 127.130 193.297,131.180 192.851,135.800 192.400 C 140.420 191.949,144.470 191.498,144.800 191.397 C 145.130 191.297,149.000 190.846,153.400 190.395 C 157.800 189.944,161.670 189.493,162.000 189.393 C 162.330 189.293,165.120 188.941,168.200 188.609 C 171.280 188.278,175.356 187.701,177.258 187.326 L 180.715 186.646 180.961 177.423 C 181.096 172.350,181.365 154.813,181.559 138.450 L 181.912 108.701 179.389 103.850 C 175.087 95.577,173.553 90.699,174.706 88.956 C 176.443 86.330,184.042 85.876,193.193 87.852 " stroke="none" fill="#fbdbab" fill-rule="evenodd"></path><path id="path2" d="M192.707 12.290 C 193.426 12.379,194.506 12.377,195.107 12.286 C 195.708 12.195,195.120 12.122,193.800 12.124 C 192.480 12.126,191.988 12.201,192.707 12.290 M205.100 12.289 C 205.815 12.378,206.985 12.378,207.700 12.289 C 208.415 12.201,207.830 12.128,206.400 12.128 C 204.970 12.128,204.385 12.201,205.100 12.289 M185.700 12.687 C 186.305 12.778,187.295 12.778,187.900 12.687 C 188.505 12.595,188.010 12.520,186.800 12.520 C 185.590 12.520,185.095 12.595,185.700 12.687 M212.100 12.687 C 212.705 12.778,213.695 12.778,214.300 12.687 C 214.905 12.595,214.410 12.520,213.200 12.520 C 211.990 12.520,211.495 12.595,212.100 12.687 M181.505 13.083 C 182.002 13.179,182.722 13.175,183.105 13.075 C 183.487 12.975,183.080 12.896,182.200 12.901 C 181.320 12.905,181.007 12.987,181.505 13.083 M217.105 13.083 C 217.602 13.179,218.322 13.175,218.705 13.075 C 219.087 12.975,218.680 12.896,217.800 12.901 C 216.920 12.905,216.607 12.987,217.105 13.083 M188.900 20.276 C 189.285 20.376,189.915 20.376,190.300 20.276 C 190.685 20.175,190.370 20.093,189.600 20.093 C 188.830 20.093,188.515 20.175,188.900 20.276 M209.700 20.276 C 210.085 20.376,210.715 20.376,211.100 20.276 C 211.485 20.175,211.170 20.093,210.400 20.093 C 209.630 20.093,209.315 20.175,209.700 20.276 M164.800 23.200 C 163.996 23.457,163.957 23.523,164.600 23.532 C 165.040 23.538,165.760 23.389,166.200 23.200 C 167.219 22.762,166.168 22.762,164.800 23.200 M243.000 25.200 C 243.440 25.389,244.070 25.544,244.400 25.544 C 244.778 25.544,244.704 25.417,244.200 25.200 C 243.760 25.011,243.130 24.856,242.800 24.856 C 242.422 24.856,242.496 24.983,243.000 25.200 M192.900 32.287 C 193.505 32.378,194.495 32.378,195.100 32.287 C 195.705 32.195,195.210 32.120,194.000 32.120 C 192.790 32.120,192.295 32.195,192.900 32.287 M204.900 32.287 C 205.505 32.378,206.495 32.378,207.100 32.287 C 207.705 32.195,207.210 32.120,206.000 32.120 C 204.790 32.120,204.295 32.195,204.900 32.287 M186.500 32.687 C 187.105 32.778,188.095 32.778,188.700 32.687 C 189.305 32.595,188.810 32.520,187.600 32.520 C 186.390 32.520,185.895 32.595,186.500 32.687 M211.300 32.687 C 211.905 32.778,212.895 32.778,213.500 32.687 C 214.105 32.595,213.610 32.520,212.400 32.520 C 211.190 32.520,210.695 32.595,211.300 32.687 M182.500 33.076 C 182.885 33.176,183.515 33.176,183.900 33.076 C 184.285 32.975,183.970 32.893,183.200 32.893 C 182.430 32.893,182.115 32.975,182.500 33.076 M216.100 33.076 C 216.485 33.176,217.115 33.176,217.500 33.076 C 217.885 32.975,217.570 32.893,216.800 32.893 C 216.030 32.893,215.715 32.975,216.100 33.076 M75.178 59.500 L 73.800 61.000 75.300 59.622 C 76.696 58.338,76.984 58.000,76.678 58.000 C 76.612 58.000,75.937 58.675,75.178 59.500 M327.200 61.725 C 327.200 61.794,327.785 62.379,328.500 63.025 L 329.800 64.200 328.625 62.900 C 327.530 61.688,327.200 61.416,327.200 61.725 M66.794 67.500 L 61.400 73.000 66.900 67.606 C 69.925 64.639,72.400 62.164,72.400 62.106 C 72.400 61.819,71.806 62.391,66.794 67.500 M78.175 67.300 L 77.000 68.600 78.300 67.425 C 79.512 66.330,79.784 66.000,79.475 66.000 C 79.406 66.000,78.821 66.585,78.175 67.300 M320.400 66.125 C 320.400 66.194,320.985 66.779,321.700 67.425 L 323.000 68.600 321.825 67.300 C 320.730 66.088,320.400 65.816,320.400 66.125 M336.000 70.600 C 337.195 71.810,338.263 72.800,338.373 72.800 C 338.483 72.800,337.595 71.810,336.400 70.600 C 335.205 69.390,334.137 68.400,334.027 68.400 C 333.917 68.400,334.805 69.390,336.000 70.600 M327.200 72.600 C 328.617 74.030,329.867 75.200,329.977 75.200 C 330.087 75.200,329.017 74.030,327.600 72.600 C 326.183 71.170,324.933 70.000,324.823 70.000 C 324.713 70.000,325.783 71.170,327.200 72.600 M58.975 75.700 L 57.800 77.000 59.100 75.825 C 60.312 74.730,60.584 74.400,60.275 74.400 C 60.206 74.400,59.621 74.985,58.975 75.700 M85.578 77.100 L 84.200 78.600 85.700 77.222 C 87.096 75.938,87.384 75.600,87.078 75.600 C 87.012 75.600,86.337 76.275,85.578 77.100 M312.800 75.725 C 312.800 75.794,313.385 76.379,314.100 77.025 L 315.400 78.200 314.225 76.900 C 313.130 75.688,312.800 75.416,312.800 75.725 M66.975 78.500 L 65.800 79.800 67.100 78.625 C 67.815 77.979,68.400 77.394,68.400 77.325 C 68.400 77.016,68.070 77.288,66.975 78.500 M331.600 77.325 C 331.600 77.394,332.185 77.979,332.900 78.625 L 334.200 79.800 333.025 78.500 C 331.930 77.288,331.600 77.016,331.600 77.325 M76.778 85.900 L 75.400 87.400 76.900 86.022 C 78.296 84.738,78.584 84.400,78.278 84.400 C 78.212 84.400,77.537 85.075,76.778 85.900 M322.000 84.925 C 322.000 84.994,322.585 85.579,323.300 86.225 L 324.600 87.400 323.425 86.100 C 322.330 84.888,322.000 84.616,322.000 84.925 M181.907 86.690 C 182.626 86.779,183.706 86.777,184.307 86.686 C 184.908 86.595,184.320 86.522,183.000 86.524 C 181.680 86.526,181.188 86.601,181.907 86.690 M214.400 97.800 C 215.146 98.570,215.847 99.200,215.957 99.200 C 216.067 99.200,215.546 98.570,214.800 97.800 C 214.054 97.030,213.353 96.400,213.243 96.400 C 213.133 96.400,213.654 97.030,214.400 97.800 M217.293 103.200 C 217.293 103.970,217.375 104.285,217.476 103.900 C 217.576 103.515,217.576 102.885,217.476 102.500 C 217.375 102.115,217.293 102.430,217.293 103.200 M181.765 122.800 C 181.765 126.650,181.825 128.225,181.898 126.300 C 181.971 124.375,181.971 121.225,181.898 119.300 C 181.825 117.375,181.765 118.950,181.765 122.800 M210.501 129.800 C 210.505 130.680,210.587 130.993,210.683 130.495 C 210.779 129.998,210.775 129.278,210.675 128.895 C 210.575 128.513,210.496 128.920,210.501 129.800 M209.293 146.000 C 209.293 146.770,209.375 147.085,209.476 146.700 C 209.576 146.315,209.576 145.685,209.476 145.300 C 209.375 144.915,209.293 145.230,209.293 146.000 M181.377 160.000 C 181.377 166.490,181.432 169.145,181.499 165.900 C 181.566 162.655,181.566 157.345,181.499 154.100 C 181.432 150.855,181.377 153.510,181.377 160.000 M208.909 151.200 C 208.909 152.190,208.987 152.595,209.082 152.100 C 209.178 151.605,209.178 150.795,209.082 150.300 C 208.987 149.805,208.909 150.210,208.909 151.200 M208.514 155.800 C 208.517 156.900,208.595 157.303,208.687 156.695 C 208.779 156.086,208.777 155.186,208.682 154.695 C 208.587 154.203,208.511 154.700,208.514 155.800 M25.029 156.229 C 24.881 156.815,24.838 157.372,24.932 157.466 C 25.027 157.560,25.224 157.158,25.371 156.571 C 25.519 155.985,25.562 155.428,25.468 155.334 C 25.373 155.240,25.176 155.642,25.029 156.229 M208.093 160.800 C 208.093 161.570,208.175 161.885,208.276 161.500 C 208.376 161.115,208.376 160.485,208.276 160.100 C 208.175 159.715,208.093 160.030,208.093 160.800 M207.693 167.600 C 207.693 168.370,207.775 168.685,207.876 168.300 C 207.976 167.915,207.976 167.285,207.876 166.900 C 207.775 166.515,207.693 166.830,207.693 167.600 M364.880 169.000 C 364.880 169.440,365.024 170.250,365.200 170.800 C 365.454 171.592,365.520 171.633,365.520 171.000 C 365.520 170.560,365.376 169.750,365.200 169.200 C 364.946 168.408,364.880 168.367,364.880 169.000 M207.377 178.800 L 207.400 183.000 212.600 183.017 L 217.800 183.035 212.714 182.906 L 207.628 182.777 207.491 178.688 L 207.354 174.600 207.377 178.800 M276.500 177.076 C 276.885 177.176,277.515 177.176,277.900 177.076 C 278.285 176.975,277.970 176.893,277.200 176.893 C 276.430 176.893,276.115 176.975,276.500 177.076 M180.953 182.200 C 180.953 184.840,181.018 185.868,181.097 184.484 C 181.175 183.101,181.174 180.941,181.095 179.684 C 181.016 178.428,180.952 179.560,180.953 182.200 M254.500 179.476 C 254.885 179.576,255.515 179.576,255.900 179.476 C 256.285 179.375,255.970 179.293,255.200 179.293 C 254.430 179.293,254.115 179.375,254.500 179.476 M12.901 182.200 C 12.905 183.080,12.987 183.393,13.083 182.895 C 13.179 182.398,13.175 181.678,13.075 181.295 C 12.975 180.913,12.896 181.320,12.901 182.200 M238.500 181.076 C 238.885 181.176,239.515 181.176,239.900 181.076 C 240.285 180.975,239.970 180.893,239.200 180.893 C 238.430 180.893,238.115 180.975,238.500 181.076 M386.901 182.200 C 386.905 183.080,386.987 183.393,387.083 182.895 C 387.179 182.398,387.175 181.678,387.075 181.295 C 386.975 180.913,386.896 181.320,386.901 182.200 M235.700 181.476 C 236.085 181.576,236.715 181.576,237.100 181.476 C 237.485 181.375,237.170 181.293,236.400 181.293 C 235.630 181.293,235.315 181.375,235.700 181.476 M32.893 183.200 C 32.893 183.970,32.975 184.285,33.076 183.900 C 33.176 183.515,33.176 182.885,33.076 182.500 C 32.975 182.115,32.893 182.430,32.893 183.200 M366.901 183.400 C 366.905 184.280,366.987 184.593,367.083 184.095 C 367.179 183.598,367.175 182.878,367.075 182.495 C 366.975 182.113,366.896 182.520,366.901 183.400 M221.300 182.676 C 221.685 182.776,222.315 182.776,222.700 182.676 C 223.085 182.575,222.770 182.493,222.000 182.493 C 221.230 182.493,220.915 182.575,221.300 182.676 M387.309 186.000 C 387.309 186.990,387.387 187.395,387.482 186.900 C 387.578 186.405,387.578 185.595,387.482 185.100 C 387.387 184.605,387.309 185.010,387.309 186.000 M12.520 186.800 C 12.520 188.010,12.595 188.505,12.687 187.900 C 12.778 187.295,12.778 186.305,12.687 185.700 C 12.595 185.095,12.520 185.590,12.520 186.800 M367.309 186.800 C 367.309 187.790,367.387 188.195,367.482 187.700 C 367.578 187.205,367.578 186.395,367.482 185.900 C 367.387 185.405,367.309 185.810,367.309 186.800 M32.520 187.600 C 32.520 188.810,32.595 189.305,32.687 188.700 C 32.778 188.095,32.778 187.105,32.687 186.500 C 32.595 185.895,32.520 186.390,32.520 187.600 M20.093 189.600 C 20.093 190.370,20.175 190.685,20.276 190.300 C 20.376 189.915,20.376 189.285,20.276 188.900 C 20.175 188.515,20.093 188.830,20.093 189.600 M147.700 191.076 C 148.085 191.176,148.715 191.176,149.100 191.076 C 149.485 190.975,149.170 190.893,148.400 190.893 C 147.630 190.893,147.315 190.975,147.700 191.076 M387.714 193.000 C 387.717 194.100,387.795 194.503,387.887 193.895 C 387.979 193.286,387.977 192.386,387.882 191.895 C 387.787 191.403,387.711 191.900,387.714 193.000 M12.124 193.800 C 12.126 195.120,12.201 195.612,12.290 194.893 C 12.379 194.174,12.377 193.094,12.286 192.493 C 12.195 191.892,12.122 192.480,12.124 193.800 M367.714 193.400 C 367.717 194.500,367.795 194.903,367.887 194.295 C 367.979 193.686,367.977 192.786,367.882 192.295 C 367.787 191.803,367.711 192.300,367.714 193.400 M32.120 194.000 C 32.120 195.210,32.195 195.705,32.287 195.100 C 32.378 194.495,32.378 193.505,32.287 192.900 C 32.195 192.295,32.120 192.790,32.120 194.000 M130.100 193.076 C 130.485 193.176,131.115 193.176,131.500 193.076 C 131.885 192.975,131.570 192.893,130.800 192.893 C 130.030 192.893,129.715 192.975,130.100 193.076 M127.300 193.476 C 127.685 193.576,128.315 193.576,128.700 193.476 C 129.085 193.375,128.770 193.293,128.000 193.293 C 127.230 193.293,126.915 193.375,127.300 193.476 M108.500 195.476 C 108.885 195.576,109.515 195.576,109.900 195.476 C 110.285 195.375,109.970 195.293,109.200 195.293 C 108.430 195.293,108.115 195.375,108.500 195.476 M94.500 196.676 C 94.885 196.776,95.515 196.776,95.900 196.676 C 96.285 196.575,95.970 196.493,95.200 196.493 C 94.430 196.493,94.115 196.575,94.500 196.676 M89.105 197.083 C 89.602 197.179,90.322 197.175,90.705 197.075 C 91.087 196.975,90.680 196.896,89.800 196.901 C 88.920 196.905,88.607 196.987,89.105 197.083 M309.705 199.887 C 310.314 199.979,311.214 199.977,311.705 199.882 C 312.197 199.787,311.700 199.711,310.600 199.714 C 309.500 199.717,309.097 199.795,309.705 199.887 M294.300 200.293 C 295.235 200.377,296.765 200.377,297.700 200.293 C 298.635 200.209,297.870 200.140,296.000 200.140 C 294.130 200.140,293.365 200.209,294.300 200.293 M251.528 200.700 C 257.318 200.762,266.678 200.762,272.328 200.700 C 277.978 200.637,273.240 200.586,261.800 200.586 C 250.360 200.586,245.738 200.637,251.528 200.700 M229.900 201.095 C 231.055 201.176,232.945 201.176,234.100 201.095 C 235.255 201.014,234.310 200.948,232.000 200.948 C 229.690 200.948,228.745 201.014,229.900 201.095 M220.700 201.482 C 221.195 201.578,222.005 201.578,222.500 201.482 C 222.995 201.387,222.590 201.309,221.600 201.309 C 220.610 201.309,220.205 201.387,220.700 201.482 M12.124 206.200 C 12.126 207.520,12.201 208.012,12.290 207.293 C 12.379 206.574,12.377 205.494,12.286 204.893 C 12.195 204.292,12.122 204.880,12.124 206.200 M32.120 206.000 C 32.120 207.210,32.195 207.705,32.287 207.100 C 32.378 206.495,32.378 205.505,32.287 204.900 C 32.195 204.295,32.120 204.790,32.120 206.000 M367.714 206.600 C 367.717 207.700,367.795 208.103,367.887 207.495 C 367.979 206.886,367.977 205.986,367.882 205.495 C 367.787 205.003,367.711 205.500,367.714 206.600 M387.714 207.000 C 387.717 208.100,387.795 208.503,387.887 207.895 C 387.979 207.286,387.977 206.386,387.882 205.895 C 387.787 205.403,387.711 205.900,387.714 207.000 M207.293 206.800 C 207.293 207.570,207.375 207.885,207.476 207.500 C 207.576 207.115,207.576 206.485,207.476 206.100 C 207.375 205.715,207.293 206.030,207.293 206.800 M20.093 210.400 C 20.093 211.170,20.175 211.485,20.276 211.100 C 20.376 210.715,20.376 210.085,20.276 209.700 C 20.175 209.315,20.093 209.630,20.093 210.400 M32.520 212.400 C 32.520 213.610,32.595 214.105,32.687 213.500 C 32.778 212.895,32.778 211.905,32.687 211.300 C 32.595 210.695,32.520 211.190,32.520 212.400 M12.520 213.200 C 12.520 214.410,12.595 214.905,12.687 214.300 C 12.778 213.695,12.778 212.705,12.687 212.100 C 12.595 211.495,12.520 211.990,12.520 213.200 M206.928 213.600 C 206.928 215.030,207.001 215.615,207.089 214.900 C 207.178 214.185,207.178 213.015,207.089 212.300 C 207.001 211.585,206.928 212.170,206.928 213.600 M367.309 213.200 C 367.309 214.190,367.387 214.595,367.482 214.100 C 367.578 213.605,367.578 212.795,367.482 212.300 C 367.387 211.805,367.309 212.210,367.309 213.200 M387.309 214.000 C 387.309 214.990,387.387 215.395,387.482 214.900 C 387.578 214.405,387.578 213.595,387.482 213.100 C 387.387 212.605,387.309 213.010,387.309 214.000 M366.901 216.600 C 366.905 217.480,366.987 217.793,367.083 217.295 C 367.179 216.798,367.175 216.078,367.075 215.695 C 366.975 215.313,366.896 215.720,366.901 216.600 M32.893 216.800 C 32.893 217.570,32.975 217.885,33.076 217.500 C 33.176 217.115,33.176 216.485,33.076 216.100 C 32.975 215.715,32.893 216.030,32.893 216.800 M12.901 217.800 C 12.905 218.680,12.987 218.993,13.083 218.495 C 13.179 217.998,13.175 217.278,13.075 216.895 C 12.975 216.513,12.896 216.920,12.901 217.800 M386.893 217.600 C 386.893 218.370,386.975 218.685,387.076 218.300 C 387.176 217.915,387.176 217.285,387.076 216.900 C 386.975 216.515,386.893 216.830,386.893 217.600 M206.546 222.200 C 206.547 224.400,206.614 225.249,206.695 224.087 C 206.776 222.924,206.776 221.124,206.693 220.087 C 206.611 219.049,206.545 220.000,206.546 222.200 M104.707 219.490 C 105.426 219.579,106.506 219.577,107.107 219.486 C 107.708 219.395,107.120 219.322,105.800 219.324 C 104.480 219.326,103.988 219.401,104.707 219.490 M365.022 229.822 C 364.872 230.625,364.828 231.362,364.926 231.460 C 365.024 231.557,365.227 230.981,365.378 230.178 C 365.528 229.375,365.572 228.638,365.474 228.540 C 365.376 228.443,365.173 229.019,365.022 229.822 M206.131 233.400 C 206.133 234.940,206.205 235.521,206.292 234.691 C 206.379 233.861,206.377 232.601,206.289 231.891 C 206.200 231.181,206.129 231.860,206.131 233.400 M181.377 251.000 C 181.377 257.380,181.432 259.934,181.499 256.676 C 181.567 253.417,181.566 248.197,181.499 245.076 C 181.431 241.954,181.376 244.620,181.377 251.000 M24.856 242.800 C 24.856 243.130,25.011 243.760,25.200 244.200 C 25.417 244.704,25.544 244.778,25.544 244.400 C 25.544 244.070,25.389 243.440,25.200 243.000 C 24.983 242.496,24.856 242.422,24.856 242.800 M205.737 251.400 C 205.739 253.160,205.809 253.830,205.893 252.889 C 205.978 251.949,205.977 250.509,205.891 249.689 C 205.805 248.870,205.736 249.640,205.737 251.400 M180.940 268.000 C 180.940 269.870,181.009 270.635,181.093 269.700 C 181.177 268.765,181.177 267.235,181.093 266.300 C 181.009 265.365,180.940 266.130,180.940 268.000 M205.328 269.600 C 205.328 271.030,205.401 271.615,205.489 270.900 C 205.578 270.185,205.578 269.015,205.489 268.300 C 205.401 267.585,205.328 268.170,205.328 269.600 M220.300 271.082 C 220.795 271.178,221.605 271.178,222.100 271.082 C 222.595 270.987,222.190 270.909,221.200 270.909 C 220.210 270.909,219.805 270.987,220.300 271.082 M214.707 271.490 C 215.426 271.579,216.506 271.577,217.107 271.486 C 217.708 271.395,217.120 271.322,215.800 271.324 C 214.480 271.326,213.988 271.401,214.707 271.490 M207.505 271.883 C 208.002 271.979,208.722 271.975,209.105 271.875 C 209.487 271.775,209.080 271.696,208.200 271.701 C 207.320 271.705,207.007 271.787,207.505 271.883 M177.300 273.476 C 177.685 273.576,178.315 273.576,178.700 273.476 C 179.085 273.375,178.770 273.293,178.000 273.293 C 177.230 273.293,176.915 273.375,177.300 273.476 M160.100 275.076 C 160.485 275.176,161.115 275.176,161.500 275.076 C 161.885 274.975,161.570 274.893,160.800 274.893 C 160.030 274.893,159.715 274.975,160.100 275.076 M157.105 275.483 C 157.602 275.579,158.322 275.575,158.705 275.475 C 159.087 275.375,158.680 275.296,157.800 275.301 C 156.920 275.305,156.607 275.387,157.105 275.483 M141.700 277.076 C 142.085 277.176,142.715 277.176,143.100 277.076 C 143.485 276.975,143.170 276.893,142.400 276.893 C 141.630 276.893,141.315 276.975,141.700 277.076 M138.900 277.476 C 139.285 277.576,139.915 277.576,140.300 277.476 C 140.685 277.375,140.370 277.293,139.600 277.293 C 138.830 277.293,138.515 277.375,138.900 277.476 M127.500 278.282 C 127.995 278.378,128.805 278.378,129.300 278.282 C 129.795 278.187,129.390 278.109,128.400 278.109 C 127.410 278.109,127.005 278.187,127.500 278.282 M266.500 287.887 C 267.105 287.978,268.095 287.978,268.700 287.887 C 269.305 287.795,268.810 287.720,267.600 287.720 C 266.390 287.720,265.895 287.795,266.500 287.887 M248.512 288.295 C 249.564 288.377,251.184 288.376,252.112 288.292 C 253.040 288.208,252.180 288.141,250.200 288.142 C 248.220 288.143,247.460 288.212,248.512 288.295 M229.680 288.698 C 231.594 288.771,234.834 288.771,236.880 288.698 C 238.926 288.626,237.360 288.566,233.400 288.565 C 229.440 288.565,227.766 288.624,229.680 288.698 M216.313 289.095 C 217.476 289.176,219.276 289.176,220.313 289.093 C 221.351 289.011,220.400 288.945,218.200 288.946 C 216.000 288.947,215.151 289.014,216.313 289.095 M206.105 289.487 C 206.714 289.579,207.614 289.577,208.105 289.482 C 208.597 289.387,208.100 289.311,207.000 289.314 C 205.900 289.317,205.497 289.395,206.105 289.487 M185.905 290.683 C 186.402 290.779,187.122 290.775,187.505 290.675 C 187.887 290.575,187.480 290.496,186.600 290.501 C 185.720 290.505,185.407 290.587,185.905 290.683 M182.100 291.076 C 182.485 291.176,183.115 291.176,183.500 291.076 C 183.885 290.975,183.570 290.893,182.800 290.893 C 182.030 290.893,181.715 290.975,182.100 291.076 M138.112 296.695 C 139.164 296.777,140.784 296.776,141.712 296.692 C 142.640 296.608,141.780 296.541,139.800 296.542 C 137.820 296.543,137.060 296.612,138.112 296.695 M323.178 313.900 L 321.800 315.400 323.300 314.022 C 324.696 312.738,324.984 312.400,324.678 312.400 C 324.612 312.400,323.937 313.075,323.178 313.900 M75.600 312.925 C 75.600 312.994,76.185 313.579,76.900 314.225 L 78.200 315.400 77.025 314.100 C 75.930 312.888,75.600 312.616,75.600 312.925 M333.381 320.900 L 331.800 322.600 333.500 321.019 C 334.435 320.149,335.200 319.384,335.200 319.319 C 335.200 319.016,334.852 319.319,333.381 320.900 M66.000 320.525 C 66.000 320.594,66.585 321.179,67.300 321.825 L 68.600 323.000 67.425 321.700 C 66.330 320.488,66.000 320.216,66.000 320.525 M84.800 322.125 C 84.800 322.194,85.385 322.779,86.100 323.425 L 87.400 324.600 86.225 323.300 C 85.130 322.088,84.800 321.816,84.800 322.125 M313.578 323.500 L 312.200 325.000 313.700 323.622 C 315.096 322.338,315.384 322.000,315.078 322.000 C 315.012 322.000,314.337 322.675,313.578 323.500 M327.188 327.500 L 324.600 330.200 327.300 327.612 C 328.785 326.188,330.000 324.973,330.000 324.912 C 330.000 324.617,329.593 324.992,327.188 327.500 M63.600 329.400 C 64.795 330.610,65.863 331.600,65.973 331.600 C 66.083 331.600,65.195 330.610,64.000 329.400 C 62.805 328.190,61.737 327.200,61.627 327.200 C 61.517 327.200,62.405 328.190,63.600 329.400 M336.975 328.500 L 335.800 329.800 337.100 328.625 C 338.312 327.530,338.584 327.200,338.275 327.200 C 338.206 327.200,337.621 327.785,336.975 328.500 M77.200 331.725 C 77.200 331.794,77.785 332.379,78.500 333.025 L 79.800 334.200 78.625 332.900 C 77.530 331.688,77.200 331.416,77.200 331.725 M320.581 333.700 L 319.000 335.400 320.700 333.819 C 321.635 332.949,322.400 332.184,322.400 332.119 C 322.400 331.816,322.052 332.119,320.581 333.700 M70.400 336.200 C 71.595 337.410,72.663 338.400,72.773 338.400 C 72.883 338.400,71.995 337.410,70.800 336.200 C 69.605 334.990,68.537 334.000,68.427 334.000 C 68.317 334.000,69.205 334.990,70.400 336.200 M328.175 337.300 L 327.000 338.600 328.300 337.425 C 329.015 336.779,329.600 336.194,329.600 336.125 C 329.600 335.816,329.270 336.088,328.175 337.300 M74.400 339.725 C 74.400 339.794,74.985 340.379,75.700 341.025 L 77.000 342.200 75.825 340.900 C 74.730 339.688,74.400 339.416,74.400 339.725 M117.600 360.179 C 117.600 360.289,118.140 360.659,118.800 361.000 C 119.460 361.341,120.000 361.531,120.000 361.421 C 120.000 361.311,119.460 360.941,118.800 360.600 C 118.140 360.259,117.600 360.069,117.600 360.179 M239.000 363.200 C 238.496 363.417,238.422 363.544,238.800 363.544 C 239.130 363.544,239.760 363.389,240.200 363.200 C 240.704 362.983,240.778 362.856,240.400 362.856 C 240.070 362.856,239.440 363.011,239.000 363.200 M169.200 365.200 C 169.750 365.376,170.560 365.520,171.000 365.520 C 171.633 365.520,171.592 365.454,170.800 365.200 C 170.250 365.024,169.440 364.880,169.000 364.880 C 168.367 364.880,168.408 364.946,169.200 365.200 M229.200 365.200 C 228.408 365.454,228.367 365.520,229.000 365.520 C 229.440 365.520,230.250 365.376,230.800 365.200 C 231.592 364.946,231.633 364.880,231.000 364.880 C 230.560 364.880,229.750 365.024,229.200 365.200 M182.705 367.083 C 183.202 367.179,183.922 367.175,184.305 367.075 C 184.687 366.975,184.280 366.896,183.400 366.901 C 182.520 366.905,182.207 366.987,182.705 367.083 M216.100 367.076 C 216.485 367.176,217.115 367.176,217.500 367.076 C 217.885 366.975,217.570 366.893,216.800 366.893 C 216.030 366.893,215.715 366.975,216.100 367.076 M185.900 367.482 C 186.395 367.578,187.205 367.578,187.700 367.482 C 188.195 367.387,187.790 367.309,186.800 367.309 C 185.810 367.309,185.405 367.387,185.900 367.482 M212.300 367.482 C 212.795 367.578,213.605 367.578,214.100 367.482 C 214.595 367.387,214.190 367.309,213.200 367.309 C 212.210 367.309,211.805 367.387,212.300 367.482 M192.505 367.887 C 193.114 367.979,194.014 367.977,194.505 367.882 C 194.997 367.787,194.500 367.711,193.400 367.714 C 192.300 367.717,191.897 367.795,192.505 367.887 M205.705 367.887 C 206.314 367.979,207.214 367.977,207.705 367.882 C 208.197 367.787,207.700 367.711,206.600 367.714 C 205.500 367.717,205.097 367.795,205.705 367.887 M181.505 387.083 C 182.002 387.179,182.722 387.175,183.105 387.075 C 183.487 386.975,183.080 386.896,182.200 386.901 C 181.320 386.905,181.007 386.987,181.505 387.083 M217.105 387.083 C 217.602 387.179,218.322 387.175,218.705 387.075 C 219.087 386.975,218.680 386.896,217.800 386.901 C 216.920 386.905,216.607 386.987,217.105 387.083 M185.100 387.482 C 185.595 387.578,186.405 387.578,186.900 387.482 C 187.395 387.387,186.990 387.309,186.000 387.309 C 185.010 387.309,184.605 387.387,185.100 387.482 M213.100 387.482 C 213.595 387.578,214.405 387.578,214.900 387.482 C 215.395 387.387,214.990 387.309,214.000 387.309 C 213.010 387.309,212.605 387.387,213.100 387.482 M192.105 387.887 C 192.714 387.979,193.614 387.977,194.105 387.882 C 194.597 387.787,194.100 387.711,193.000 387.714 C 191.900 387.717,191.497 387.795,192.105 387.887 M206.105 387.887 C 206.714 387.979,207.614 387.977,208.105 387.882 C 208.597 387.787,208.100 387.711,207.000 387.714 C 205.900 387.717,205.497 387.795,206.105 387.887 " stroke="none" fill="#988365" fill-rule="evenodd"></path><path id="path3" d="M188.900 12.276 C 189.285 12.376,189.915 12.376,190.300 12.276 C 190.685 12.175,190.370 12.093,189.600 12.093 C 188.830 12.093,188.515 12.175,188.900 12.276 M209.700 12.276 C 210.085 12.376,210.715 12.376,211.100 12.276 C 211.485 12.175,211.170 12.093,210.400 12.093 C 209.630 12.093,209.315 12.175,209.700 12.276 M192.705 20.283 C 193.202 20.379,193.922 20.375,194.305 20.275 C 194.687 20.175,194.280 20.096,193.400 20.101 C 192.520 20.105,192.207 20.187,192.705 20.283 M205.900 20.282 C 206.395 20.378,207.205 20.378,207.700 20.282 C 208.195 20.187,207.790 20.109,206.800 20.109 C 205.810 20.109,205.405 20.187,205.900 20.282 M185.900 20.682 C 186.395 20.778,187.205 20.778,187.700 20.682 C 188.195 20.587,187.790 20.509,186.800 20.509 C 185.810 20.509,185.405 20.587,185.900 20.682 M212.300 20.682 C 212.795 20.778,213.605 20.778,214.100 20.682 C 214.595 20.587,214.190 20.509,213.200 20.509 C 212.210 20.509,211.805 20.587,212.300 20.682 M181.700 21.076 C 182.085 21.176,182.715 21.176,183.100 21.076 C 183.485 20.975,183.170 20.893,182.400 20.893 C 181.630 20.893,181.315 20.975,181.700 21.076 M216.900 21.076 C 217.285 21.176,217.915 21.176,218.300 21.076 C 218.685 20.975,218.370 20.893,217.600 20.893 C 216.830 20.893,216.515 20.975,216.900 21.076 M179.700 33.076 C 180.085 33.176,180.715 33.176,181.100 33.076 C 181.485 32.975,181.170 32.893,180.400 32.893 C 179.630 32.893,179.315 32.975,179.700 33.076 M218.900 33.076 C 219.285 33.176,219.915 33.176,220.300 33.076 C 220.685 32.975,220.370 32.893,219.600 32.893 C 218.830 32.893,218.515 32.975,218.900 33.076 M74.175 60.100 L 73.000 61.400 74.300 60.225 C 75.512 59.130,75.784 58.800,75.475 58.800 C 75.406 58.800,74.821 59.385,74.175 60.100 M332.600 66.800 C 334.128 68.340,335.469 69.600,335.579 69.600 C 335.689 69.600,334.528 68.340,333.000 66.800 C 331.472 65.260,330.131 64.000,330.021 64.000 C 329.911 64.000,331.072 65.260,332.600 66.800 M67.781 66.100 L 66.200 67.800 67.900 66.219 C 69.481 64.748,69.784 64.400,69.481 64.400 C 69.416 64.400,68.651 65.165,67.781 66.100 M79.775 66.100 L 78.600 67.400 79.900 66.225 C 81.112 65.130,81.384 64.800,81.075 64.800 C 81.006 64.800,80.421 65.385,79.775 66.100 M327.193 72.900 C 331.087 76.894,331.600 77.382,331.600 77.093 C 331.600 77.034,329.665 75.099,327.300 72.793 L 323.000 68.600 327.193 72.900 M72.591 72.900 L 69.400 76.200 72.700 73.009 C 75.765 70.046,76.182 69.600,75.891 69.600 C 75.830 69.600,74.345 71.085,72.591 72.900 M59.775 74.500 L 58.600 75.800 59.900 74.625 C 61.112 73.530,61.384 73.200,61.075 73.200 C 61.006 73.200,60.421 73.785,59.775 74.500 M84.000 78.200 C 83.028 79.190,82.323 80.000,82.433 80.000 C 82.543 80.000,83.428 79.190,84.400 78.200 C 85.372 77.210,86.077 76.400,85.967 76.400 C 85.857 76.400,84.972 77.210,84.000 78.200 M315.400 78.000 C 316.259 78.880,317.052 79.600,317.162 79.600 C 317.272 79.600,316.659 78.880,315.800 78.000 C 314.941 77.120,314.148 76.400,314.038 76.400 C 313.928 76.400,314.541 77.120,315.400 78.000 M65.775 80.100 L 64.600 81.400 65.900 80.225 C 67.112 79.130,67.384 78.800,67.075 78.800 C 67.006 78.800,66.421 79.385,65.775 80.100 M78.000 84.200 C 77.028 85.190,76.323 86.000,76.433 86.000 C 76.543 86.000,77.428 85.190,78.400 84.200 C 79.372 83.210,80.077 82.400,79.967 82.400 C 79.857 82.400,78.972 83.210,78.000 84.200 M321.800 84.400 C 322.659 85.280,323.452 86.000,323.562 86.000 C 323.672 86.000,323.059 85.280,322.200 84.400 C 321.341 83.520,320.548 82.800,320.438 82.800 C 320.328 82.800,320.941 83.520,321.800 84.400 M181.300 87.094 C 182.345 87.176,184.055 87.176,185.100 87.094 C 186.145 87.012,185.290 86.944,183.200 86.944 C 181.110 86.944,180.255 87.012,181.300 87.094 M181.760 138.600 C 181.761 141.900,181.822 143.197,181.898 141.482 C 181.973 139.767,181.972 137.067,181.897 135.482 C 181.821 133.897,181.759 135.300,181.760 138.600 M209.293 142.800 C 209.293 143.570,209.375 143.885,209.476 143.500 C 209.576 143.115,209.576 142.485,209.476 142.100 C 209.375 141.715,209.293 142.030,209.293 142.800 M208.901 147.000 C 208.905 147.880,208.987 148.193,209.083 147.695 C 209.179 147.198,209.175 146.478,209.075 146.095 C 208.975 145.713,208.896 146.120,208.901 147.000 M207.309 172.000 C 207.309 172.990,207.387 173.395,207.482 172.900 C 207.578 172.405,207.578 171.595,207.482 171.100 C 207.387 170.605,207.309 171.010,207.309 172.000 M181.358 181.000 C 181.358 184.080,181.421 185.287,181.497 183.682 C 181.573 182.078,181.573 179.558,181.496 178.082 C 181.419 176.607,181.357 177.920,181.358 181.000 M206.942 179.400 C 206.941 181.380,207.008 182.240,207.092 181.312 C 207.176 180.384,207.177 178.764,207.095 177.712 C 207.012 176.660,206.943 177.420,206.942 179.400 M289.300 176.276 C 289.685 176.376,290.315 176.376,290.700 176.276 C 291.085 176.175,290.770 176.093,290.000 176.093 C 289.230 176.093,288.915 176.175,289.300 176.276 M284.305 176.683 C 284.802 176.779,285.522 176.775,285.905 176.675 C 286.287 176.575,285.880 176.496,285.000 176.501 C 284.120 176.505,283.807 176.587,284.305 176.683 M279.905 177.083 C 280.402 177.179,281.122 177.175,281.505 177.075 C 281.887 176.975,281.480 176.896,280.600 176.901 C 279.720 176.905,279.407 176.987,279.905 177.083 M12.893 179.200 C 12.893 179.970,12.975 180.285,13.076 179.900 C 13.176 179.515,13.176 178.885,13.076 178.500 C 12.975 178.115,12.893 178.430,12.893 179.200 M245.300 180.676 C 245.685 180.776,246.315 180.776,246.700 180.676 C 247.085 180.575,246.770 180.493,246.000 180.493 C 245.230 180.493,244.915 180.575,245.300 180.676 M20.893 182.400 C 20.893 183.170,20.975 183.485,21.076 183.100 C 21.176 182.715,21.176 182.085,21.076 181.700 C 20.975 181.315,20.893 181.630,20.893 182.400 M378.901 182.600 C 378.905 183.480,378.987 183.793,379.083 183.295 C 379.179 182.798,379.175 182.078,379.075 181.695 C 378.975 181.313,378.896 181.720,378.901 182.600 M224.305 182.683 C 224.802 182.779,225.522 182.775,225.905 182.675 C 226.287 182.575,225.880 182.496,225.000 182.501 C 224.120 182.505,223.807 182.587,224.305 182.683 M219.900 183.082 C 220.395 183.178,221.205 183.178,221.700 183.082 C 222.195 182.987,221.790 182.909,220.800 182.909 C 219.810 182.909,219.405 182.987,219.900 183.082 M209.715 183.496 C 210.988 183.576,212.968 183.575,214.115 183.494 C 215.262 183.414,214.220 183.349,211.800 183.350 C 209.380 183.351,208.442 183.416,209.715 183.496 M379.293 186.000 C 379.293 186.770,379.375 187.085,379.476 186.700 C 379.576 186.315,379.576 185.685,379.476 185.300 C 379.375 184.915,379.293 185.230,379.293 186.000 M20.509 186.800 C 20.509 187.790,20.587 188.195,20.682 187.700 C 20.778 187.205,20.778 186.395,20.682 185.900 C 20.587 185.405,20.509 185.810,20.509 186.800 M379.709 192.800 C 379.709 193.790,379.787 194.195,379.882 193.700 C 379.978 193.205,379.978 192.395,379.882 191.900 C 379.787 191.405,379.709 191.810,379.709 192.800 M20.109 193.200 C 20.109 194.190,20.187 194.595,20.282 194.100 C 20.378 193.605,20.378 192.795,20.282 192.300 C 20.187 191.805,20.109 192.210,20.109 193.200 M132.900 193.076 C 133.285 193.176,133.915 193.176,134.300 193.076 C 134.685 192.975,134.370 192.893,133.600 192.893 C 132.830 192.893,132.515 192.975,132.900 193.076 M322.501 194.200 C 322.505 195.080,322.587 195.393,322.683 194.895 C 322.779 194.398,322.775 193.678,322.675 193.295 C 322.575 192.913,322.496 193.320,322.501 194.200 M117.700 194.676 C 118.085 194.776,118.715 194.776,119.100 194.676 C 119.485 194.575,119.170 194.493,118.400 194.493 C 117.630 194.493,117.315 194.575,117.700 194.676 M114.500 195.076 C 114.885 195.176,115.515 195.176,115.900 195.076 C 116.285 194.975,115.970 194.893,115.200 194.893 C 114.430 194.893,114.115 194.975,114.500 195.076 M97.500 196.682 C 97.995 196.778,98.805 196.778,99.300 196.682 C 99.795 196.587,99.390 196.509,98.400 196.509 C 97.410 196.509,97.005 196.587,97.500 196.682 M93.100 197.082 C 93.595 197.178,94.405 197.178,94.900 197.082 C 95.395 196.987,94.990 196.909,94.000 196.909 C 93.010 196.909,92.605 196.987,93.100 197.082 M315.105 199.483 C 315.602 199.579,316.322 199.575,316.705 199.475 C 317.087 199.375,316.680 199.296,315.800 199.301 C 314.920 199.305,314.607 199.387,315.105 199.483 M305.500 199.882 C 305.995 199.978,306.805 199.978,307.300 199.882 C 307.795 199.787,307.390 199.709,306.400 199.709 C 305.410 199.709,305.005 199.787,305.500 199.882 M281.519 200.298 C 283.344 200.372,286.224 200.372,287.919 200.297 C 289.614 200.222,288.120 200.161,284.600 200.162 C 281.080 200.162,279.694 200.224,281.519 200.298 M233.513 200.695 C 234.676 200.776,236.476 200.776,237.513 200.693 C 238.551 200.611,237.600 200.545,235.400 200.546 C 233.200 200.547,232.351 200.614,233.513 200.695 M221.907 201.090 C 222.626 201.179,223.706 201.177,224.307 201.086 C 224.908 200.995,224.320 200.922,223.000 200.924 C 221.680 200.926,221.188 201.001,221.907 201.090 M217.300 201.476 C 217.685 201.576,218.315 201.576,218.700 201.476 C 219.085 201.375,218.770 201.293,218.000 201.293 C 217.230 201.293,216.915 201.375,217.300 201.476 M20.109 206.800 C 20.109 207.790,20.187 208.195,20.282 207.700 C 20.378 207.205,20.378 206.395,20.282 205.900 C 20.187 205.405,20.109 205.810,20.109 206.800 M379.709 207.200 C 379.709 208.190,379.787 208.595,379.882 208.100 C 379.978 207.605,379.978 206.795,379.882 206.300 C 379.787 205.805,379.709 206.210,379.709 207.200 M206.920 208.000 C 206.920 209.210,206.995 209.705,207.087 209.100 C 207.178 208.495,207.178 207.505,207.087 206.900 C 206.995 206.295,206.920 206.790,206.920 208.000 M20.509 213.200 C 20.509 214.190,20.587 214.595,20.682 214.100 C 20.778 213.605,20.778 212.795,20.682 212.300 C 20.587 211.805,20.509 212.210,20.509 213.200 M379.293 214.000 C 379.293 214.770,379.375 215.085,379.476 214.700 C 379.576 214.315,379.576 213.685,379.476 213.300 C 379.375 212.915,379.293 213.230,379.293 214.000 M206.520 215.600 C 206.520 216.810,206.595 217.305,206.687 216.700 C 206.778 216.095,206.778 215.105,206.687 214.500 C 206.595 213.895,206.520 214.390,206.520 215.600 M378.901 217.400 C 378.905 218.280,378.987 218.593,379.083 218.095 C 379.179 217.598,379.175 216.878,379.075 216.495 C 378.975 216.113,378.896 216.520,378.901 217.400 M20.893 217.600 C 20.893 218.370,20.975 218.685,21.076 218.300 C 21.176 217.915,21.176 217.285,21.076 216.900 C 20.975 216.515,20.893 216.830,20.893 217.600 M103.300 219.076 C 103.685 219.176,104.315 219.176,104.700 219.076 C 105.085 218.975,104.770 218.893,104.000 218.893 C 103.230 218.893,102.915 218.975,103.300 219.076 M106.900 219.076 C 107.285 219.176,107.915 219.176,108.300 219.076 C 108.685 218.975,108.370 218.893,107.600 218.893 C 106.830 218.893,106.515 218.975,106.900 219.076 M12.893 220.800 C 12.893 221.570,12.975 221.885,13.076 221.500 C 13.176 221.115,13.176 220.485,13.076 220.100 C 12.975 219.715,12.893 220.030,12.893 220.800 M206.128 227.200 C 206.128 228.630,206.201 229.215,206.289 228.500 C 206.378 227.785,206.378 226.615,206.289 225.900 C 206.201 225.185,206.128 225.770,206.128 227.200 M205.728 244.800 C 205.728 246.230,205.801 246.815,205.889 246.100 C 205.978 245.385,205.978 244.215,205.889 243.500 C 205.801 242.785,205.728 243.370,205.728 244.800 M205.346 261.800 C 205.347 264.000,205.414 264.849,205.495 263.687 C 205.576 262.524,205.576 260.724,205.493 259.687 C 205.411 258.649,205.345 259.600,205.346 261.800 M181.324 266.200 C 181.326 267.520,181.401 268.012,181.490 267.293 C 181.579 266.574,181.577 265.494,181.486 264.893 C 181.395 264.292,181.322 264.880,181.324 266.200 M251.105 267.883 C 251.602 267.979,252.322 267.975,252.705 267.875 C 253.087 267.775,252.680 267.696,251.800 267.701 C 250.920 267.705,250.607 267.787,251.105 267.883 M204.901 270.600 C 204.905 271.480,204.987 271.793,205.083 271.295 C 205.179 270.798,205.175 270.078,205.075 269.695 C 204.975 269.313,204.896 269.720,204.901 270.600 M228.100 270.676 C 228.485 270.776,229.115 270.776,229.500 270.676 C 229.885 270.575,229.570 270.493,228.800 270.493 C 228.030 270.493,227.715 270.575,228.100 270.676 M224.500 271.076 C 224.885 271.176,225.515 271.176,225.900 271.076 C 226.285 270.975,225.970 270.893,225.200 270.893 C 224.430 270.893,224.115 270.975,224.500 271.076 M219.700 271.476 C 220.085 271.576,220.715 271.576,221.100 271.476 C 221.485 271.375,221.170 271.293,220.400 271.293 C 219.630 271.293,219.315 271.375,219.700 271.476 M180.800 272.504 C 180.800 272.855,180.485 273.224,180.100 273.324 C 179.444 273.496,179.445 273.510,180.113 273.554 C 180.836 273.601,181.506 272.573,181.049 272.116 C 180.912 271.979,180.800 272.153,180.800 272.504 M167.105 274.683 C 167.602 274.779,168.322 274.775,168.705 274.675 C 169.087 274.575,168.680 274.496,167.800 274.501 C 166.920 274.505,166.607 274.587,167.105 274.683 M163.300 275.076 C 163.685 275.176,164.315 275.176,164.700 275.076 C 165.085 274.975,164.770 274.893,164.000 274.893 C 163.230 274.893,162.915 274.975,163.300 275.076 M144.900 277.076 C 145.285 277.176,145.915 277.176,146.300 277.076 C 146.685 276.975,146.370 276.893,145.600 276.893 C 144.830 276.893,144.515 276.975,144.900 277.076 M123.907 278.690 C 124.626 278.779,125.706 278.777,126.307 278.686 C 126.908 278.595,126.320 278.522,125.000 278.524 C 123.680 278.526,123.188 278.601,123.907 278.690 M114.441 282.824 C 114.418 283.386,114.683 284.196,115.030 284.624 C 115.376 285.051,115.527 285.146,115.366 284.835 C 115.204 284.524,114.939 283.714,114.777 283.035 C 114.506 281.900,114.479 281.882,114.441 282.824 M115.600 285.725 C 115.600 285.794,116.185 286.379,116.900 287.025 L 118.200 288.200 117.025 286.900 C 115.930 285.688,115.600 285.416,115.600 285.725 M275.700 287.076 C 276.085 287.176,276.715 287.176,277.100 287.076 C 277.485 286.975,277.170 286.893,276.400 286.893 C 275.630 286.893,275.315 286.975,275.700 287.076 M271.900 287.482 C 272.395 287.578,273.205 287.578,273.700 287.482 C 274.195 287.387,273.790 287.309,272.800 287.309 C 271.810 287.309,271.405 287.387,271.900 287.482 M261.705 287.887 C 262.314 287.979,263.214 287.977,263.705 287.882 C 264.197 287.787,263.700 287.711,262.600 287.714 C 261.500 287.717,261.097 287.795,261.705 287.887 M240.311 288.293 C 241.251 288.378,242.691 288.377,243.511 288.291 C 244.330 288.205,243.560 288.136,241.800 288.137 C 240.040 288.139,239.370 288.209,240.311 288.293 M219.900 288.693 C 220.835 288.777,222.365 288.777,223.300 288.693 C 224.235 288.609,223.470 288.540,221.600 288.540 C 219.730 288.540,218.965 288.609,219.900 288.693 M207.511 289.093 C 208.451 289.178,209.891 289.177,210.711 289.091 C 211.530 289.005,210.760 288.936,209.000 288.937 C 207.240 288.939,206.570 289.009,207.511 289.093 M201.305 289.487 C 201.914 289.579,202.814 289.577,203.305 289.482 C 203.797 289.387,203.300 289.311,202.200 289.314 C 201.100 289.317,200.697 289.395,201.305 289.487 M77.800 315.600 C 78.659 316.480,79.452 317.200,79.562 317.200 C 79.672 317.200,79.059 316.480,78.200 315.600 C 77.341 314.720,76.548 314.000,76.438 314.000 C 76.328 314.000,76.941 314.720,77.800 315.600 M64.800 318.925 C 64.800 318.994,65.385 319.579,66.100 320.225 L 67.400 321.400 66.225 320.100 C 65.130 318.888,64.800 318.616,64.800 318.925 M83.983 321.700 C 84.964 322.745,85.819 323.600,85.883 323.600 C 86.184 323.600,85.866 323.241,84.100 321.583 L 82.200 319.800 83.983 321.700 M315.381 322.100 L 313.800 323.800 315.500 322.219 C 317.081 320.748,317.384 320.400,317.081 320.400 C 317.016 320.400,316.251 321.165,315.381 322.100 M326.993 327.300 L 322.600 331.800 327.100 327.407 C 331.280 323.326,331.782 322.800,331.493 322.800 C 331.434 322.800,329.409 324.825,326.993 327.300 M72.800 327.400 C 74.660 329.270,76.272 330.800,76.382 330.800 C 76.492 330.800,75.060 329.270,73.200 327.400 C 71.340 325.530,69.728 324.000,69.618 324.000 C 69.508 324.000,70.940 325.530,72.800 327.400 M332.800 333.000 C 331.161 334.650,329.910 336.000,330.020 336.000 C 330.130 336.000,331.561 334.650,333.200 333.000 C 334.839 331.350,336.090 330.000,335.980 330.000 C 335.870 330.000,334.439 331.350,332.800 333.000 M66.800 333.000 C 68.217 334.430,69.467 335.600,69.577 335.600 C 69.687 335.600,68.617 334.430,67.200 333.000 C 65.783 331.570,64.533 330.400,64.423 330.400 C 64.313 330.400,65.383 331.570,66.800 333.000 M274.300 350.629 C 272.805 351.440,272.896 351.778,274.400 351.000 C 275.060 350.659,275.600 350.294,275.600 350.190 C 275.600 349.932,275.557 349.947,274.300 350.629 M218.900 367.076 C 219.285 367.176,219.915 367.176,220.300 367.076 C 220.685 366.975,220.370 366.893,219.600 366.893 C 218.830 366.893,218.515 366.975,218.900 367.076 M181.905 379.083 C 182.402 379.179,183.122 379.175,183.505 379.075 C 183.887 378.975,183.480 378.896,182.600 378.901 C 181.720 378.905,181.407 378.987,181.905 379.083 M216.900 379.076 C 217.285 379.176,217.915 379.176,218.300 379.076 C 218.685 378.975,218.370 378.893,217.600 378.893 C 216.830 378.893,216.515 378.975,216.900 379.076 M185.300 379.476 C 185.685 379.576,186.315 379.576,186.700 379.476 C 187.085 379.375,186.770 379.293,186.000 379.293 C 185.230 379.293,184.915 379.375,185.300 379.476 M213.300 379.476 C 213.685 379.576,214.315 379.576,214.700 379.476 C 215.085 379.375,214.770 379.293,214.000 379.293 C 213.230 379.293,212.915 379.375,213.300 379.476 M191.900 379.882 C 192.395 379.978,193.205 379.978,193.700 379.882 C 194.195 379.787,193.790 379.709,192.800 379.709 C 191.810 379.709,191.405 379.787,191.900 379.882 M206.705 379.883 C 207.202 379.979,207.922 379.975,208.305 379.875 C 208.687 379.775,208.280 379.696,207.400 379.701 C 206.520 379.705,206.207 379.787,206.705 379.883 M175.700 386.676 C 176.085 386.776,176.715 386.776,177.100 386.676 C 177.485 386.575,177.170 386.493,176.400 386.493 C 175.630 386.493,175.315 386.575,175.700 386.676 " stroke="none" fill="#72644c" fill-rule="evenodd"></path><path id="path4" d="M181.709 131.200 C 181.709 132.190,181.787 132.595,181.882 132.100 C 181.978 131.605,181.978 130.795,181.882 130.300 C 181.787 129.805,181.709 130.210,181.709 131.200 M181.320 173.600 C 181.320 174.810,181.395 175.305,181.487 174.700 C 181.578 174.095,181.578 173.105,181.487 172.500 C 181.395 171.895,181.320 172.390,181.320 173.600 M225.905 201.083 C 226.402 201.179,227.122 201.175,227.505 201.075 C 227.887 200.975,227.480 200.896,226.600 200.901 C 225.720 200.905,225.407 200.987,225.905 201.083 M212.500 289.076 C 212.885 289.176,213.515 289.176,213.900 289.076 C 214.285 288.975,213.970 288.893,213.200 288.893 C 212.430 288.893,212.115 288.975,212.500 289.076 " stroke="none" fill="#7c644c" fill-rule="evenodd"></path></g></svg>